<svg xmlns="http://www.w3.org/2000/svg" width="116" height="16" viewBox="42.5 32 116 16" enable-background="new 42.5 32 116 16"><path d="M90.871 42.11h7.329l-3.872-6.059-7.108 10.947h-3.245l8.649-13.143c.369-.529.999-.855 1.695-.855.682 0 1.304.312 1.671.831l8.681 13.165h-3.239l-1.524-2.444h-7.415l-1.622-2.442zm33.61 2.444v-11.419h-2.751v12.54c0 .343.146.675.405.919.269.262.622.404 1.004.404h12.513l1.628-2.444h-12.799zm-45.427-2.047c2.673 0 4.827-2.096 4.827-4.688 0-2.589-2.154-4.685-4.827-4.685h-12.014v13.863h2.745v-11.412h9.083c1.279 0 2.311.997 2.311 2.236 0 1.238-1.031 2.249-2.311 2.249l-7.74-.002 8.198 6.93h3.988l-5.517-4.491h1.257zm-28.913 4.491c-3.942 0-7.141-3.099-7.141-6.928 0-3.831 3.199-6.936 7.141-6.936h8.301c3.95 0 7.134 3.103 7.134 6.936 0 3.829-3.185 6.928-7.134 6.928h-8.301zm8.113-2.438c2.557 0 4.622-2.011 4.622-4.489 0-2.484-2.065-4.487-4.622-4.487h-7.927c-2.554 0-4.622 2.003-4.622 4.487 0 2.477 2.068 4.489 4.622 4.489h7.927zm52.151 2.438c-3.946 0-7.152-3.099-7.152-6.928 0-3.831 3.204-6.936 7.152-6.936h9.858l-1.618 2.448h-8.053c-2.564 0-4.631 2.003-4.631 4.485 0 2.477 2.066 4.489 4.631 4.489h9.895l-1.605 2.44h-8.477zm33.579-2.438c-2.112 0-3.894-1.381-4.446-3.265h11.74l1.611-2.444h-13.352c.551-1.885 2.334-3.266 4.446-3.266h8.06l1.609-2.448h-9.854c-3.938 0-7.133 3.103-7.133 6.936 0 3.829 3.194 6.928 7.133 6.928h8.479l1.612-2.44h-9.905v-.001zm11.142-9.946c0-.678.565-1.222 1.27-1.222s1.266.544 1.266 1.222c0 .677-.563 1.225-1.266 1.225s-1.27-.548-1.27-1.225zm1.27 1.563c.893 0 1.604-.698 1.604-1.558 0-.858-.712-1.561-1.604-1.561-.886 0-1.609.702-1.609 1.561-.001.858.723 1.558 1.609 1.558zm-.155-2.483c.242 0 .349.008.477.049.31.101.343.386.343.485l-.021.145c-.016.066-.057.205-.215.302l-.08.042.413.724h-.402l-.37-.675h-.233v.675h-.355v-1.746h.443zm.129.791c.102 0 .227-.012.288-.11l.055-.151c0-.094-.061-.171-.143-.213-.087-.032-.163-.032-.329-.032h-.094v.507h.223z"/></svg>